<?xml version="1.0" encoding="UTF-8"?><svg id="a" xmlns="http://www.w3.org/2000/svg" viewBox="0 0 812.07 213.77"><defs><style>.b{fill:#fff;stroke-width:0px;}</style></defs><polygon class="b" points="138.72 130.75 41.91 3.54 0 3.54 0 210.14 44.86 210.14 44.86 78.8 144.92 210.14 183.58 210.14 183.58 3.54 138.72 3.54 138.72 130.75"/><polygon class="b" points="373.65 3.54 319.64 149.05 265.63 3.54 215.45 3.54 298.98 211.62 339.12 211.62 422.65 3.54 373.65 3.54"/><path class="b" d="m803.18,122.73c-5.92-7.4-14.12-13.87-24.58-19.4,8.1-4.93,14.51-10.9,19.25-17.91,4.74-7.01,7.11-16.14,7.11-27.39v-.59c0-7.89-1.74-15.35-5.19-22.35-3.46-7-8.39-13.03-14.8-18.06-6.42-5.03-14.12-9.03-23.09-11.99-8.98-2.95-18.91-4.44-29.76-4.44s-21.02,1.48-29.9,4.44c-8.88,2.96-16.54,7.01-22.95,12.14-6.42,5.13-11.36,11.15-14.81,18.06-3.45,6.91-5.17,14.31-5.17,22.2v.59c0,11.25,2.37,20.38,7.1,27.39,4.74,7.01,11.15,12.98,19.25,17.91-11.06,5.14-19.4,11.6-25.02,19.4-5.63,7.8-8.44,18.01-8.44,30.64v.59c0,9.08,2.02,17.27,6.07,24.57,4.04,7.31,9.63,13.57,16.72,18.8,7.11,5.23,15.56,9.28,25.32,12.14,9.77,2.86,20.38,4.29,31.83,4.29s22.06-1.38,31.83-4.15c9.77-2.76,18.21-6.76,25.31-11.99,7.11-5.23,12.68-11.6,16.73-19.1,4.04-7.5,6.07-16.09,6.07-25.76v-.59c0-12.24-2.96-22.06-8.88-29.46Zm-100.67-60.55c0-6.31,2.56-11.89,7.7-16.73,5.13-4.84,12.44-7.26,21.91-7.26s16.77,2.47,21.91,7.41c5.13,4.93,7.7,10.56,7.7,16.88v.59c0,7.31-2.66,13.33-7.99,18.06-5.33,4.74-12.54,7.11-21.62,7.11s-16.28-2.41-21.62-7.25c-5.33-4.83-7.99-10.9-7.99-18.21v-.59Zm65.43,88.23c0,7.31-3.16,13.43-9.47,18.36-6.31,4.93-15.1,7.41-26.35,7.41s-20.04-2.52-26.35-7.55c-6.32-5.03-9.47-11.1-9.47-18.21v-.59c0-8.09,3.36-14.36,10.07-18.8,6.71-4.44,15.3-6.66,25.76-6.66s19.05,2.22,25.76,6.66c6.71,4.44,10.06,10.71,10.06,18.8v.59Z"/><polygon class="b" points="585.01 133.71 585.01 203.32 585.05 203.32 627.47 167.54 627.47 126.86 627.47 91.25 551.22 91.25 532.67 113.23 515.4 133.71 532.67 133.71 565.75 133.71 585.01 133.71"/><path class="b" d="m534.31.1c-13.98.5-26.93,3.25-38.82,8.31-13.18,5.61-24.6,13.28-34.24,23.02-9.65,9.74-17.17,21.05-22.58,33.94-5.42,12.89-8.12,26.71-8.12,41.47v.59c0,15.35,2.66,29.51,7.96,42.5,5.32,12.99,12.73,24.2,22.29,33.64,9.54,9.44,20.96,16.82,34.24,22.14,13.29,5.31,27.99,7.97,44.12,7.97,9.38,0,18.25-.79,26.59-2.37v-42.35c-7.6,2.44-15.95,3.7-25.11,3.7s-17.67-1.63-25.24-4.88c-7.57-3.25-14.16-7.84-19.77-13.75-5.62-5.92-9.95-12.87-12.99-20.86-3.06-7.99-4.58-16.71-4.58-26.18v-.59c0-8.87,1.52-17.2,4.58-24.99,3.04-7.79,7.28-14.59,12.69-20.41,5.41-5.82,11.71-10.46,18.89-13.9,6.27-3.01,12.99-4.63,20.08-5.02v.02h73.2V0h-73.2v.1Z"/></svg>